<svg width="100" height="100" viewBox="0 0 100 100" fill="none" xmlns="http://www.w3.org/2000/svg">
<path d="M43.875 44.5726C43.4583 43.2479 43.0833 41.9658 42.6667 40.641C42.25 39.3162 41.875 38.0769 41.5417 36.8376C41.2083 35.641 40.9167 34.5299 40.625 33.5043H40.5417C40.1667 35.3419 39.7083 37.1795 39.125 39.0171C38.5 41.0684 37.875 43.2051 37.2083 45.3419C36.625 47.5214 36 49.5299 35.375 51.3248H45.9583C45.7083 50.4231 45.375 49.359 45 48.2436C44.625 47.094 44.25 45.8547 43.875 44.5726ZM82.2917 0H17.7083C7.91667 0 0 8.11966 0 18.1624V81.8376C0 91.8803 7.91667 100 17.7083 100H82.2917C92.0833 100 100 91.8803 100 81.8376V18.1624C100 8.11966 92.0833 0 82.2917 0ZM61.25 70.641H52.5375C52.25 70.6838 51.9583 70.4701 51.875 70.1709L48.4583 60H32.9583L29.7917 70.0427C29.7083 70.4273 29.375 70.6838 29 70.6453H21.1667C20.7083 70.6453 20.5833 70.3846 20.7083 69.8761L34.125 30.2564C34.25 29.8291 34.375 29.359 34.5417 28.8462C34.7083 27.9487 34.7917 27.0085 34.7917 26.0684C34.75 25.8547 34.9167 25.641 35.125 25.5983H45.9167C46.25 25.5983 46.4167 25.7265 46.4583 25.9402L61.6667 69.9573C61.7917 70.4231 61.6667 70.641 61.25 70.641ZM75.4167 70C75.4167 70.4701 75.2542 70.6838 74.8792 70.6838H66.7083C66.2917 70.6838 66.0833 70.4231 66.0833 70V37.094C66.0833 36.6667 66.2542 36.4957 66.6292 36.4957H74.8792C75.2542 36.4957 75.4167 36.7094 75.4167 37.094V70ZM74.5458 31.4103C74.0537 31.9228 73.4604 32.3215 72.8057 32.5795C72.151 32.8374 71.4501 32.9488 70.75 32.906C69.375 32.9487 68.0417 32.3932 67.0375 31.4103C66.0829 30.3397 65.5744 28.9286 65.6208 27.4786C65.5792 26.0256 66.1208 24.6581 67.1167 23.6752C68.125 22.6923 69.4583 22.1795 70.8333 22.1795C72.4625 22.1795 73.7042 22.6923 74.625 23.6752C75.5417 24.7009 76.0417 26.0684 76 27.4786C76.0417 28.9316 75.5417 30.3419 74.5458 31.4103Z" fill="black"/>
</svg>
