<svg width="25" height="25" viewBox="0 0 25 25" fill="none" xmlns="http://www.w3.org/2000/svg">
<path d="M10.4074 14.5647C10.4074 15.6417 9.62612 15.9821 8.6663 15.9821H6.14955V13.0301H8.71652C9.75446 13.0357 10.4074 13.4654 10.4074 14.5647ZM9.97768 9.9721C9.97768 8.98438 9.21317 8.75 8.36495 8.75H6.15513V11.25H8.53795C9.38058 11.25 9.97768 10.8817 9.97768 9.9721ZM17.3605 11.2667C16.3393 11.2667 15.6585 11.9029 15.5915 12.9241H19.0625C18.9676 11.8917 18.4319 11.2667 17.3605 11.2667ZM25 2.67857V22.3214C25 23.8002 23.8002 25 22.3214 25H2.67857C1.19978 25 0 23.8002 0 22.3214V2.67857C0 1.19978 1.19978 0 2.67857 0H22.3214C23.8002 0 25 1.19978 25 2.67857ZM15.1618 8.53795H19.5033V7.48326H15.1618V8.53795ZM12.7623 14.6931C12.7623 13.3482 12.1261 12.1875 10.8092 11.8136C11.769 11.356 12.2712 10.8259 12.2712 9.74888C12.2712 7.61719 10.6808 7.09821 8.84487 7.09821H3.79464V17.8125H8.98996C10.9375 17.8013 12.7623 16.8694 12.7623 14.6931ZM21.2054 13.8672C21.2054 11.5737 19.8605 9.6596 17.433 9.6596C15.067 9.6596 13.4654 11.4342 13.4654 13.7667C13.4654 16.183 14.9888 17.8404 17.433 17.8404C19.2857 17.8404 20.4855 17.0089 21.0658 15.2288H19.1853C18.9788 15.8929 18.1473 16.2388 17.5 16.2388C16.25 16.2388 15.5971 15.5078 15.5971 14.269H21.1886C21.1942 14.1406 21.2054 14.0011 21.2054 13.8672Z" fill="#141414"/>
</svg>
