<svg width="73" height="100" viewBox="0 0 73 100" fill="none" xmlns="http://www.w3.org/2000/svg">
<path fill-rule="evenodd" clip-rule="evenodd" d="M60.6061 9.09091H12.1212C10.4476 9.09091 9.09091 10.4476 9.09091 12.1212V87.8788C9.09091 89.5524 10.4476 90.9091 12.1212 90.9091H60.6061C62.2796 90.9091 63.6364 89.5524 63.6364 87.8788V12.1212C63.6364 10.4476 62.2796 9.09091 60.6061 9.09091ZM12.1212 0C5.42685 0 0 5.42685 0 12.1212V87.8788C0 94.5732 5.42685 100 12.1212 100H60.6061C67.3004 100 72.7273 94.5732 72.7273 87.8788V12.1212C72.7273 5.42685 67.3004 0 60.6061 0H12.1212Z" fill="#141414"/>
<path d="M15.1515 22.7273C15.1515 20.2169 17.1866 18.1818 19.697 18.1818H25.7576C28.268 18.1818 30.303 20.2169 30.303 22.7273C30.303 25.2377 28.268 27.2727 25.7576 27.2727H19.697C17.1866 27.2727 15.1515 25.2377 15.1515 22.7273Z" fill="#141414"/>
<path d="M15.1515 40.9091C15.1515 38.3987 17.1866 36.3636 19.697 36.3636H25.7576C28.268 36.3636 30.303 38.3987 30.303 40.9091C30.303 43.4195 28.268 45.4545 25.7576 45.4545H19.697C17.1866 45.4545 15.1515 43.4195 15.1515 40.9091Z" fill="#141414"/>
<path d="M15.1515 59.0909C15.1515 56.5805 17.1866 54.5455 19.697 54.5455H25.7576C28.268 54.5455 30.303 56.5805 30.303 59.0909C30.303 61.6013 28.268 63.6364 25.7576 63.6364H19.697C17.1866 63.6364 15.1515 61.6013 15.1515 59.0909Z" fill="#141414"/>
<path d="M15.1515 77.2727C15.1515 74.7623 17.1866 72.7273 19.697 72.7273H25.7576C28.268 72.7273 30.303 74.7623 30.303 77.2727C30.303 79.7831 28.268 81.8182 25.7576 81.8182H19.697C17.1866 81.8182 15.1515 79.7831 15.1515 77.2727Z" fill="#141414"/>
<path d="M42.4242 22.7273C42.4242 20.2169 44.4593 18.1818 46.9697 18.1818H53.0303C55.5407 18.1818 57.5758 20.2169 57.5758 22.7273C57.5758 25.2377 55.5407 27.2727 53.0303 27.2727H46.9697C44.4593 27.2727 42.4242 25.2377 42.4242 22.7273Z" fill="#141414"/>
<path d="M42.4242 40.9091C42.4242 38.3987 44.4593 36.3636 46.9697 36.3636H53.0303C55.5407 36.3636 57.5758 38.3987 57.5758 40.9091C57.5758 43.4195 55.5407 45.4545 53.0303 45.4545H46.9697C44.4593 45.4545 42.4242 43.4195 42.4242 40.9091Z" fill="#141414"/>
<path d="M42.4242 59.0909C42.4242 56.5805 44.4593 54.5455 46.9697 54.5455H53.0303C55.5407 54.5455 57.5758 56.5805 57.5758 59.0909C57.5758 61.6013 55.5407 63.6364 53.0303 63.6364H46.9697C44.4593 63.6364 42.4242 61.6013 42.4242 59.0909Z" fill="#141414"/>
<path d="M42.4242 77.2727C42.4242 74.7623 44.4593 72.7273 46.9697 72.7273H53.0303C55.5407 72.7273 57.5758 74.7623 57.5758 77.2727C57.5758 79.7831 55.5407 81.8182 53.0303 81.8182H46.9697C44.4593 81.8182 42.4242 79.7831 42.4242 77.2727Z" fill="#141414"/>
</svg>
