<svg width="101" height="100" viewBox="0 0 101 100" fill="none" xmlns="http://www.w3.org/2000/svg">
<path d="M50.6672 0C23.0454 0 0.667236 22.3781 0.667236 50C0.667236 77.6219 23.0454 100 50.6672 100C78.2891 100 100.667 77.6219 100.667 50C100.667 22.3781 78.2891 0 50.6672 0ZM29.6704 32C32.811 32 35.2547 34.2906 35.5297 36.9969C35.8266 39.4375 34.8141 41.5719 32.1141 42.8563C30.6797 43.5719 30.111 43.5719 29.8172 43.1469C29.6704 42.8563 29.8172 42.5812 30.1079 42.2844C32.6829 40.1562 32.6829 38.4313 32.386 36.0063C32.2391 34.4281 31.1016 33.4313 29.961 33.4313C24.9485 33.4313 17.8204 44.5656 18.811 52.7188C19.2516 55.8594 21.1079 59.5719 25.0954 59.5719C26.3829 59.5719 27.8172 59.1469 29.0985 58.5812C31.1829 57.4719 32.436 56.6281 33.6735 55.2437C33.3641 51.5469 36.6016 46.7156 41.386 46.7156C43.536 46.7156 45.2454 47.5781 45.3891 49.1562C45.6672 51.2906 43.811 51.5813 43.2422 51.5813C42.6704 51.5813 41.6641 51.4344 41.6641 50.8656C41.536 50.2938 42.9485 50.575 42.8172 49.2875C42.6704 48.425 41.8079 48.15 40.9641 48.15C37.9516 48.15 36.2422 52.3 36.6672 54.8531C36.8141 56.0062 37.3797 57.15 38.5391 57.15C39.386 57.15 40.6735 55.8625 41.0922 54.0094C41.3829 52.7219 42.5266 51.8594 43.5329 51.8594C43.9579 51.8594 44.2329 52.0062 44.3797 52.575V53.1469C44.2516 53.7188 43.8079 55.4437 43.9579 55.8625C43.9579 56.1594 44.1047 56.5781 44.6704 56.5781C45.0454 56.5781 46.4797 55.8281 47.911 54.6562C48.3829 52.1969 48.9516 49.2531 48.9516 49.0094C49.0985 48 49.5235 47.0062 51.5235 47.0062C51.961 47.0062 52.2391 47.1531 52.386 47.7219V48.2938L51.8141 50.8656C53.6735 48.4406 56.3891 46.7313 58.0985 46.7313C58.8141 46.7313 59.386 47.1531 59.386 47.8687C59.386 48.2938 59.386 49.0094 59.0891 49.7281C58.5235 51.2906 57.8047 53.7312 57.3797 55.8625C57.3797 56.4344 57.5266 57.0031 58.2422 57.0031C58.9579 57.0031 61.0922 56.1562 62.8016 53.8625L62.836 53.8469C62.836 53.5688 62.8016 53.2937 62.8016 53.0187C62.8016 51.2937 62.9485 49.8781 63.2422 48.8687C63.5329 47.7281 64.9516 46.7344 65.8141 46.7344C66.236 46.7344 66.6766 47.0094 66.6766 47.4344C66.6766 47.5812 66.6766 47.8719 66.5297 48.0063C65.9579 49.8781 65.5172 51.5844 65.5172 53.2938C65.5172 54.3031 65.6672 55.7188 65.9579 56.5813C65.9579 56.7281 66.086 56.8719 66.2329 56.8719C66.5297 56.8719 68.5297 55.0187 69.9454 52.575C68.6579 51.7281 67.9422 50.2969 67.9422 48.5875C67.9422 45.5781 69.8172 44.0125 71.5266 44.0125C72.961 44.0125 74.0985 45.0094 74.0985 47.0094C74.0985 48.2969 73.6735 49.7312 72.961 51.0125H73.3829C74.2954 51.0469 75.1922 50.6719 75.8079 50.0219C75.9438 49.8044 76.1435 49.6342 76.3797 49.5344C77.7797 47.7594 79.8297 46.4438 82.2547 46.4438C84.2547 46.4438 86.0954 47.3062 86.2422 48.8687C86.5329 51.0156 84.6641 51.4406 84.0922 51.4406C83.5266 51.4406 82.5172 51.2938 82.5172 50.725C82.5172 50.1562 83.8016 50.4344 83.6704 49.1625C83.5235 48.3 82.661 48.0094 81.7985 48.0094C78.9485 48.0094 77.0954 51.7188 77.5141 54.7313C77.661 55.8688 78.2297 57.1563 79.3735 57.1563C80.236 57.1563 81.5204 55.8687 82.0891 54.0156C82.3641 52.8781 83.5235 51.8656 84.5141 51.8656C84.9516 51.8656 85.2297 52.0125 85.3766 52.5812C85.3766 52.8781 85.3766 53.4438 84.8047 55.3031C84.0891 56.5875 84.0891 57.3031 84.2391 57.875C84.3672 59.0125 84.9391 59.875 85.5235 60.3C85.6279 60.4325 85.7209 60.5737 85.8016 60.7219C85.8016 61.0187 85.6516 61.3094 85.2297 61.3094C85.0829 61.3094 84.9516 61.3094 84.8047 61.1625C82.6579 60.3 81.7954 58.8656 81.5172 57.4344C80.6547 58.4437 79.6641 59.0125 78.5079 59.0125C76.6485 59.0125 74.811 57.3031 74.5204 55.1531C74.4315 54.2414 74.537 53.3211 74.8297 52.4531C73.9829 52.9906 73.0704 53.3 72.2266 53.3H71.5266C69.6547 56.0156 67.6516 57.875 66.236 58.7219C65.7484 58.9817 65.2096 59.1311 64.6579 59.1594C64.3829 59.1594 63.9454 59.0125 63.811 58.7219C63.4079 58.0875 63.161 57.0938 62.9985 55.9562C60.9954 58.1344 58.2266 59.3063 56.9454 59.3063C55.511 59.3063 54.6672 58.4438 54.5204 57.0156V55.4531C54.9422 52.3125 56.0985 50.4406 56.0985 49.8688C56.0901 49.7935 56.056 49.7234 56.0019 49.6705C55.9478 49.6175 55.877 49.5849 55.8016 49.5781C54.811 49.5781 51.5235 53.0125 50.9516 55.3063L50.5141 57.1594C50.236 58.4438 48.9516 59.3063 48.0891 59.3063C47.6641 59.3063 47.3735 59.1594 47.2422 58.5938V58.0219L47.4204 57.0469C45.611 58.3312 43.8047 59.1594 42.9422 59.1594C41.6579 59.1594 40.9422 58.4437 40.8141 57.4344C39.9516 58.5938 38.9547 59.1594 37.6735 59.1594C36.1891 59.1594 34.761 58.15 34.0766 56.6875C33.0485 57.8406 31.8922 58.9969 30.5266 59.875C28.5266 61.1625 26.2485 62.1531 23.5266 62.1531C21.1016 62.1531 18.9547 60.8656 17.8141 59.7281C16.0891 58.15 15.0985 55.725 14.9516 53.4437C14.1047 46.4469 18.386 37.4438 24.9422 33.4406C26.5204 32.5781 28.1016 32.0125 29.6641 32.0125L29.6704 32ZM70.3766 45.7219C69.9547 45.7219 69.6641 46.4375 69.6641 47.1344C69.6641 48.2938 70.2297 49.575 70.9485 50.2938C71.2351 49.5117 71.3841 48.686 71.3891 47.8531C71.3891 46.4406 70.8172 45.725 70.3766 45.725V45.7219Z" fill="black"/>
</svg>
