<svg width="100" height="100" viewBox="0 0 100 100" fill="none" xmlns="http://www.w3.org/2000/svg">
<path d="M21.4286 21.4286C19.5342 21.4286 17.7174 22.1811 16.3778 23.5207C15.0383 24.8602 14.2857 26.677 14.2857 28.5714V42.8571C14.2857 44.7515 15.0383 46.5684 16.3778 47.9079C17.7174 49.2474 19.5342 50 21.4286 50H42.8571C44.7515 50 46.5684 49.2474 47.9079 47.9079C49.2474 46.5684 50 44.7515 50 42.8571V28.5714C50 26.677 49.2474 24.8602 47.9079 23.5207C46.5684 22.1811 44.7515 21.4286 42.8571 21.4286H21.4286ZM21.4286 28.5714H42.8571V42.8571H21.4286V28.5714ZM14.2857 60.7143C14.2857 59.7671 14.662 58.8587 15.3318 58.1889C16.0015 57.5191 16.9099 57.1429 17.8571 57.1429H46.4286C47.3758 57.1429 48.2842 57.5191 48.954 58.1889C49.6237 58.8587 50 59.7671 50 60.7143C50 61.6615 49.6237 62.5699 48.954 63.2397C48.2842 63.9094 47.3758 64.2857 46.4286 64.2857H17.8571C16.9099 64.2857 16.0015 63.9094 15.3318 63.2397C14.662 62.5699 14.2857 61.6615 14.2857 60.7143ZM17.8571 71.4286C16.9099 71.4286 16.0015 71.8048 15.3318 72.4746C14.662 73.1444 14.2857 74.0528 14.2857 75C14.2857 75.9472 14.662 76.8556 15.3318 77.5254C16.0015 78.1952 16.9099 78.5714 17.8571 78.5714H46.4286C47.3758 78.5714 48.2842 78.1952 48.954 77.5254C49.6237 76.8556 50 75.9472 50 75C50 74.0528 49.6237 73.1444 48.954 72.4746C48.2842 71.8048 47.3758 71.4286 46.4286 71.4286H17.8571ZM0 21.4286C0 15.7454 2.25765 10.2949 6.27628 6.27628C10.2949 2.25765 15.7454 0 21.4286 0H78.5714C84.2546 0 89.7051 2.25765 93.7237 6.27628C97.7424 10.2949 100 15.7454 100 21.4286V78.5714C100 84.2546 97.7424 89.7051 93.7237 93.7237C89.7051 97.7424 84.2546 100 78.5714 100H21.4286C15.7454 100 10.2949 97.7424 6.27628 93.7237C2.25765 89.7051 0 84.2546 0 78.5714V21.4286ZM57.1429 92.8571V7.14286H21.4286C17.6398 7.14286 14.0061 8.64795 11.327 11.327C8.64795 14.0061 7.14286 17.6398 7.14286 21.4286V78.5714C7.14286 82.3602 8.64795 85.9939 11.327 88.673C14.0061 91.352 17.6398 92.8571 21.4286 92.8571H57.1429ZM78.5714 92.8571C82.3602 92.8571 85.9939 91.352 88.673 88.673C91.352 85.9939 92.8571 82.3602 92.8571 78.5714V71.4286H64.2857V92.8571H78.5714ZM92.8571 28.5714V21.4286C92.8571 17.6398 91.352 14.0061 88.673 11.327C85.9939 8.64795 82.3602 7.14286 78.5714 7.14286H64.2857V28.5714H92.8571ZM92.8571 64.2857V35.7143H64.2857V64.2857H92.8571Z" fill="black"/>
</svg>
