<svg width="67" height="100" viewBox="0 0 67 100" fill="none" xmlns="http://www.w3.org/2000/svg">
<path fill-rule="evenodd" clip-rule="evenodd" d="M18.3961 0C8.20026 0 0.000264603 8.55416 0.000264603 19.0333C0.000264603 25.4042 3.0336 31.0625 7.6961 34.5167C5.2931 36.317 3.34531 38.6553 2.00887 41.3441C0.672426 44.0329 -0.0154893 46.9974 0.000264603 50C0.000264603 56.375 3.0336 62.0292 7.6961 65.4833C5.2931 67.2837 3.34531 69.622 2.00887 72.3108C0.672426 74.9996 -0.0154893 77.9641 0.000264603 80.9667C0.000264603 91.4458 8.20026 100 18.3961 100C28.5878 100 36.7919 91.4458 36.7919 80.9667V64.875C40.0141 67.5616 44.0758 69.0344 48.2711 69.0375C58.4669 69.0333 66.6669 60.4792 66.6669 50C66.6837 46.9973 65.9962 44.0324 64.6597 41.3435C63.3232 38.6545 61.3748 36.3163 58.9711 34.5167C61.3741 32.7163 63.3219 30.378 64.6583 27.6892C65.9948 25.0004 66.6827 22.0359 66.6669 19.0333C66.6669 8.55416 58.4669 0 48.2711 0H18.3961ZM6.91276 19.0333C6.91276 12.4042 12.0878 7.09583 18.3961 7.09583H29.8753V30.9708H18.3961C12.0878 30.9708 6.91276 25.6583 6.91276 19.0333ZM48.2711 30.9667H36.7919V7.09167H48.2711C54.5836 7.09167 59.7544 12.4042 59.7544 19.0333C59.7544 25.6583 54.5836 30.9667 48.2711 30.9667ZM6.91693 50C6.91693 43.375 12.0919 38.0625 18.4003 38.0625H29.8794V61.9375H18.3961C12.0836 61.9375 6.91276 56.625 6.91276 50H6.91693ZM36.7919 50C36.7919 43.375 41.9669 38.0625 48.2753 38.0625C54.5878 38.0625 59.7586 43.3708 59.7586 50C59.7586 56.625 54.5878 61.9375 48.2753 61.9375C41.9669 61.9375 36.7961 56.6292 36.7961 50H36.7919ZM6.91693 80.9667C6.91693 74.3417 12.0919 69.0333 18.4003 69.0333H29.8794V80.9667C29.8794 87.5958 24.7128 92.9042 18.4003 92.9042C12.0919 92.9042 6.91693 87.5958 6.91693 80.9667Z" fill="black"/>
</svg>
