<svg width="100" height="100" viewBox="0 0 100 100" fill="none" xmlns="http://www.w3.org/2000/svg">
<path d="M99.6171 37.9275C98.6178 35.4246 95.6199 34.4234 93.1217 35.4246L78.6319 42.4328L68.1393 31.9205L57.6467 21.4082L64.6418 6.89125C65.6411 4.38833 64.6418 1.38482 62.1436 0.383652C59.6453 -0.617518 56.6474 0.383651 55.6482 2.88657L48.1535 18.4047L16.1761 23.4105C14.1775 23.9111 12.6785 25.4129 12.1789 27.4152L0.187368 85.483C-0.312279 86.9848 0.187367 88.9871 1.68631 89.9883L10.1803 98.4982C11.1796 99.4994 12.6785 100 13.6778 100H14.6771L72.6361 87.986C74.6347 87.4854 76.1337 85.9836 76.6333 83.9813L81.6298 51.9439L97.1188 44.4351C99.6171 43.4339 100.616 40.4304 99.6171 37.9275ZM67.14 78.9754L18.1746 88.9871L36.6616 70.4655C44.1563 73.9696 53.1499 70.9661 56.6474 63.4573C60.145 55.9485 57.1471 46.938 49.6524 43.4339C44.1563 40.931 37.1612 41.9322 32.6644 46.4374C28.1676 50.9427 27.1683 57.9509 29.6665 63.4573L11.1796 81.979L21.1725 32.9217L50.152 27.9158L61.1443 38.9287L72.1365 49.9415L67.14 78.9754ZM38.1605 56.9497C38.1605 55.448 38.6602 54.4468 39.6595 53.4456C41.658 51.4433 44.6559 51.4433 46.6545 53.4456C48.6531 55.448 48.6531 58.4515 46.6545 60.4538C44.6559 62.4562 41.658 62.4562 39.6595 60.4538C38.6602 59.4526 38.1605 57.9509 38.1605 56.9497Z" fill="black"/>
</svg>
