<svg width="41" height="40" viewBox="0 0 41 40" fill="none" xmlns="http://www.w3.org/2000/svg">
<path d="M0.0516357 20C0.0516357 28.5383 5.4033 35.8283 12.935 38.6967C12.7516 37.135 12.5566 34.56 12.9766 32.7533C13.3383 31.2 15.3116 22.8567 15.3116 22.8567C15.3116 22.8567 14.7166 21.665 14.7166 19.9C14.7166 17.1333 16.32 15.0667 18.3183 15.0667C20.0183 15.0667 20.8383 16.3417 20.8383 17.87C20.8383 19.5783 19.75 22.1317 19.1883 24.5C18.72 26.4817 20.1833 28.0983 22.1366 28.0983C25.675 28.0983 28.3966 24.3667 28.3966 18.98C28.3966 14.2117 24.97 10.88 20.0783 10.88C14.415 10.88 11.09 15.1283 11.09 19.52C11.09 21.2317 11.7483 23.065 12.5716 24.0633C12.6418 24.1387 12.6914 24.2309 12.7157 24.3311C12.7399 24.4312 12.7379 24.5359 12.71 24.635C12.5583 25.265 12.2216 26.6167 12.1566 26.8933C12.0683 27.2567 11.8683 27.335 11.49 27.1583C9.0033 26.0017 7.44997 22.3667 7.44997 19.4467C7.44997 13.165 12.0116 7.39833 20.6033 7.39833C27.51 7.39833 32.8783 12.32 32.8783 18.8967C32.8783 25.7583 28.5533 31.2817 22.5466 31.2817C20.5283 31.2817 18.6333 30.2317 17.9833 28.9933C17.9833 28.9933 16.985 32.7967 16.7433 33.7267C16.2733 35.5333 14.97 37.82 14.1616 39.1183C16.025 39.6917 18.0016 40 20.0516 40C31.0966 40 40.0516 31.045 40.0516 20C40.0516 8.955 31.0966 0 20.0516 0C9.00664 0 0.0516357 8.955 0.0516357 20Z" fill="white"/>
</svg>
