<svg width="100" height="100" viewBox="0 0 100 100" fill="none" xmlns="http://www.w3.org/2000/svg">
<path d="M41.0417 34.7023C39.5 34.0613 37.8333 33.8049 36.125 33.8476C35.0417 33.8476 34.0833 33.8476 33.2917 33.8903C32.4583 33.8476 31.875 33.8903 31.5833 33.9331V48.2927C32.1667 48.3354 32.7083 48.3781 33.2083 48.3781H35.4167C37.0417 48.3781 38.6667 48.1217 40.2083 47.6089C41.5417 47.2242 42.7083 46.4122 43.625 45.3438C44.5 44.2754 44.9167 42.8223 44.9167 40.9419C44.9583 39.6171 44.625 38.2922 43.9583 37.1383C43.2636 36.0287 42.2418 35.1753 41.0417 34.7023ZM82.2917 0H17.7083C7.91667 0 0 8.12001 0 18.1632V81.8368C0 91.88 7.91667 100 17.7083 100H82.2917C92.0833 100 100 91.88 100 81.8368V18.1632C100 8.12001 92.0833 0 82.2917 0ZM51.4958 49.7885C49.8333 52.1817 47.5 53.9767 44.7917 55.0023C41.9583 56.0708 38.8333 56.4554 35.4167 56.4554C34.4167 56.4554 33.75 56.4554 33.3333 56.4127C32.9167 56.3699 32.3333 56.3699 31.5417 56.3699V70.0842C31.5833 70.3833 31.375 70.6441 31.0833 70.6868H23C22.6667 70.6868 22.5 70.5116 22.5 70.1269V26.155C22.5 25.8558 22.625 25.6849 22.9167 25.6849C23.625 25.6849 24.2917 25.6849 25.25 25.6421C26.25 25.5994 27.2917 25.5994 28.4167 25.5566C29.5417 25.5139 30.75 25.5139 32.0417 25.4712C33.3333 25.4284 34.5833 25.4284 35.8333 25.4284C39.25 25.4284 42.0833 25.8558 44.4167 26.7533C46.5 27.4798 48.4167 28.6764 50 30.2577C51.3333 31.6253 52.375 33.292 53.0417 35.1297C53.6625 36.9247 53.9958 38.7623 53.9958 40.6855C54 44.3609 53.1667 47.3952 51.4958 49.7885ZM81.0417 66.4131C79.875 68.1226 78.2458 69.4431 76.375 70.221C74.3333 71.1142 71.8333 71.58 68.8292 71.58C66.9167 71.58 65.0375 71.4133 63.1667 71.0287C61.7083 70.768 60.25 70.3022 58.9167 69.6611C58.625 69.4944 58.4125 69.1953 58.4542 68.8534V61.4172C58.4542 61.2932 58.5 61.118 58.625 61.0325C58.7458 60.947 58.875 60.9898 59 61.0753C60.625 62.0582 62.3333 62.7463 64.1667 63.1694C65.7458 63.5967 67.4125 63.8104 69.0833 63.8104C70.6667 63.8104 71.7917 63.5925 72.5417 63.2078C73.2083 62.9087 73.6667 62.1821 73.6667 61.4129C73.6667 60.8103 73.3333 60.259 72.6667 59.7034C72 59.1521 70.6292 58.511 68.5875 57.6905C66.4625 56.9212 64.5083 55.8955 62.6708 54.6177C61.367 53.6599 60.2845 52.4198 59.5 50.9851C58.8378 49.6329 58.5101 48.1344 58.5458 46.6216C58.5458 44.784 59.0458 43.0317 59.9667 41.4505C61.0083 39.741 62.5458 38.3734 64.3375 37.5187C66.2917 36.4973 68.75 36.0272 71.7083 36.0272C73.4167 36.0272 75.1667 36.1554 76.875 36.4118C78.125 36.5828 79.3333 36.9247 80.4583 37.3948C80.6208 37.4375 80.7917 37.6084 80.875 37.7794C80.9167 37.9503 80.9583 38.1213 80.9583 38.2922V45.2583C80.9583 45.4293 80.875 45.6002 80.75 45.6857C80.375 45.7712 80.1667 45.7712 80 45.6857C78.75 45.0019 77.4167 44.5318 76 44.2327C74.4583 43.8908 72.9167 43.6771 71.3333 43.6771C70.5 43.6343 69.625 43.7626 68.8292 43.9762C68.2917 44.1045 67.8292 44.4036 67.5375 44.831C67.3292 45.1729 67.2042 45.6002 67.2042 45.9849C67.2042 46.3695 67.3708 46.7541 67.625 47.096C68 47.5661 68.4958 47.9508 69.0417 48.2499C69.9958 48.7628 71 49.2329 71.9958 49.6602C74.25 50.4295 76.4167 51.4979 78.4167 52.78C79.7917 53.6732 80.9167 54.8741 81.7042 56.3272C82.3708 57.6862 82.7042 59.1906 82.6625 60.7248C82.7083 62.7377 82.125 64.7421 81.0417 66.4131Z" fill="black"/>
</svg>
