<svg width="34" height="40" viewBox="0 0 34 40" fill="none" xmlns="http://www.w3.org/2000/svg">
<path d="M12.9233 31.2683H21.7783C22.4532 31.267 23.1 30.9982 23.577 30.5209C24.0541 30.0435 24.3225 29.3965 24.3233 28.7217V19.1217H33.0517V28.7217C33.0517 31.712 31.8641 34.5799 29.7501 36.6949C27.6361 38.8098 24.7687 39.9987 21.7783 40H12.9233V31.2683ZM20.125 8.72833H11.275C10.5996 8.72833 9.95172 8.99631 9.47364 9.47344C8.99557 9.95058 8.72633 10.5979 8.725 11.2733V20.875H1.23304e-07V11.2733C-0.000218873 9.7927 0.29128 8.32652 0.857845 6.95857C1.42441 5.59062 2.25494 4.3477 3.30198 3.30081C4.34903 2.25391 5.59208 1.42357 6.96011 0.857207C8.32815 0.290845 9.79436 -0.000437387 11.275 4.9296e-07H20.125V8.72833Z" fill="white"/>
</svg>
